/* XPM */
static const char * mcfaces_64x_xpm[] = {
"288 56 9 1",
" 	c #000000",
".	c #555555",
"+	c #994433",
"@	c #776600",
"#	c #9955AA",
"$	c #BB8844",
"%	c #EE8888",
"&	c #BBBBBB",
"*	c #FFFFFF",
"                                                                                                                                                                                                                                                                                                ",
"                                ..                                              ..                                                                                                                                                                                                              ",
"                          ..  ..                                          ..  ..                                          ..    ..                                                                                                                                                              ",
"                                                                                                                            ..                                              ..  ..                                        ..    ..                                                              ",
"                @@@@@@@@....  ..                                @@@@@@@@....  ..                                @@@@@@@@....  ..                                @@@@@@@@....  ..                                            ..                                              ..                  ",
"              @@&&&&$$@@$$$$..  ..                            @@&&&&$$@@$$$$..  ..                            @@&&&&$$@@$$$$..  ..                            @@&&&&$$@@$$....  ..                              @@@@@@@@....  ..                                @@@@@@@@....  ..                ",
"            @@&&&&$$@@@@@@..$$..@@..                        @@&&&&$$@@@@@@..$$..@@..                        @@&&&&$$$$@@@@@@$$..@@..                        @@&&&&$$$$@@$$$$....@@..                          @@$$$$$$@@$$@@..  ..                            @@$$$$$$@@$$@@..  ..              ",
"            $$$$$$@@$$@@@@@@......@@                        $$$$$$@@$$@@@@@@......@@                        $$&&$$$$@@@@@@..@@....@@                        $$&&$$$$$$@@@@@@$$....@@                        @@$$&&&&$$@@@@$$@@..@@..                        @@$$&&&&$$@@@@$$@@..@@              ",
"          @@$$&&$$$$@@$$@@..@@..  ..@@                    @@$$&&$$$$@@$$@@..@@..  ..@@                    @@$$$$$$@@$$@@@@@@........@@                    @@$$$$$$$$@@@@@@..@@......@@                      $$&&&&$$$$@@@@@@$$....@@                        $$&&&&$$$$@@@@@@$$......            ",
"          $$&&$$&&$$$$@@@@@@........@@                    $$&&$$&&$$$$@@@@@@........@@                    $$$$&&$$$$@@$$@@..@@......@@                    $$$$$$$$@@$$@@@@@@........@@                    @@$$&&$$$$$$@@@@@@$$......@@                    @@$$&&$$$$$$@@@@@@$$......            ",
"          &&$$&&$$$$@@$$@@..@@..  ......                  &&$$&&$$$$@@$$@@..@@..  ......                  $$&&$$&&$$$$@@@@@@....  ......                  $$$$&&$$$$@@$$@@..@@..........                  $$$$$$$$$$@@@@@@..@@......@@                    $$$$$$$$$$$$@@@@@@..@@  ....          ",
"        @@$$&&$$$$$$$$@@@@@@..@@..  ..                  @@$$&&$$$$$$$$@@@@@@..@@..  ..                  @@&&$$&&$$$$@@$$@@..@@      ..                  @@&&&&$$&&$$$$@@@@@@....  ....                    $$$$$$$$@@$$@@@@@@............                  $$++$$$$$$$$$$@@@@@@........          ",
"        @@&&$$@@$$$$@@@@@@..@@..  ..  ..                @@&&$$@@$$$$@@@@@@..@@..  ..  ..                @@$$&&$$$$$$$$@@@@@@..@@  ..  ..                @@$$$$&&$$$$@@$$@@..@@      ....                @@$$$$@@$$$$@@$$@@............                  @@$$++++$$&&$$@@$$@@..........          ",
"        $$$$&&$$@@$$$$@@@@@@  @@  ....                  $$$$&&$$@@$$$$@@@@@@  @@  ....                  $$&&$$@@$$$$@@@@@@..@@..  ....                  $$$$&&$$$$$$$$@@@@@@..@@  ..                    @@$$@@@@&&$$$$@@@@@@@@..........                @@++$$++$$$$$$$$@@@@@@@@  ......        ",
"      @@$$@@$$@@$$$$$$@@@@..@@..  ..  ..              @@$$@@$$@@$$$$$$@@@@..@@..  ..  ..              @@$$$$&&$$@@$$$$@@@@@@  @@      ..              @@$$&&$$@@$$$$@@@@@@..@@..  ......                $$$$@@$$$$$$$$@@@@@@....  ....                  $$$$++++$$&&$$@@@@@@@@....  ..          ",
"      $$@@  @@@@@@$$$$@@@@@@  ++  ........            $$@@  @@@@@@$$$$@@@@@@  ++  ........            $$@@@@$$@@$$$$$$@@@@..@@..  ........            $$@@$$&&$$@@$$$$@@@@@@  @@      ....            @@$$$$$$$$&&$$@@$$@@..@@        ..              @@$$++++++&&$$&&@@$$@@..@@  ..            ",
"      $$$$@@@@  @@@@$$@@  ..  ++....  ....            $$$$@@@@  @@@@$$@@  ..  ++....  ....            $$$$  @@@@@@$$$$@@@@@@      ..  ....            $$$$@@$$@@$$$$$$@@@@..@@..  ........            $$@@&&$$&&$$$$$$@@@@@@..@@  ........            $$@@$$++++$$&&$$@@@@@@@@..@@  ....        ",
"      $$@@  @@  @@  @@@@    ++++++      ..            $$@@  @@  @@  @@@@    ++++++      ..            $$@@@@@@  @@@@$$@@  ..  ++....    ..            $$@@  @@@@@@$$$$@@@@@@      ..    ..            $$$$$$&&@@$$$$@@@@@@..@@..  ..  ....            $$$$$$++++$$$$$$$$@@@@..@@..  ..          ",
"      @@@@    @@  @@@@@@    ++++++..  ..              @@@@    @@  @@@@@@    ++++++..  ..              @@@@  @@  @@  @@@@      ++++    ..              @@@@@@@@  @@@@$$@@  ..  ++....  ..              $$@@$$$$$$@@$$$$@@@@@@  @@        ..            @@@@$$$$++@@$$$$$$@@@@@@  @@    ..        ",
"      @@    ++++++++++  ++++##++##++    ..            @@    ++++++++++  ++++##++##++    ..            @@          @@@@@@    ++++++..    ..            @@    ++  @@  @@@@      ++++      ..            @@@@@@$$@@$$$$$$@@  ..  ..  ......              @@@@@@$$++$$@@$$$$@@  ++  ..    ....      ",
"      @@  ++%%%%%%%%++++++##++##..##++                @@  ++%%%%%%%%++++++##++##..##++                @@  ++++++++++@@  ++++##++##++++                @@      ++  @@@@@@    ++++++  ++                @@    @@@@@@$$$$@@@@@@      ..    ..            @@@@@@@@++@@$$$$$$@@++@@      ....        ",
"          ++%%&&&&%%++%%%%++##++##..++  ..                ++%%&&&&%%++%%%%++##++##..++  ..                ++%%%%%%++@@++++##++##....++  ..                  ++++++++@@  ++++##++..  ++  ..            @@  @@@@  @@@@$$@@  ++  ++....                    @@  ++@@@@@@$$$$++  ++      ....        ",
"      @@  %%&&&&%%%%%%%%##%%####..##++                @@  %%&&&&%%%%%%%%##%%####..##++                @@  %%%%%%%%%%++%%%%####++##  ++                @@  ++%%%%%%++@@++++##++####  ++                      ++  @@  @@@@      ++++      ..            @@@@@@++@@  @@@@@@@@      ++    ..        ",
"          %%%%%%%%%%%%%%%%##%%####..##  ..                %%%%%%%%%%%%%%%%##%%####..##  ..                %%&&&&%%++%%++%%%%####..####  ..                ++%%%%%%%%++%%++++####..####  ..            @@    @@++@@@@@@@@    ++++++  ++                  @@  ++++  @@  @@++    ++    ++....      ",
"        ++%%++++++%%++&&%%%%##++++......                ++%%++++++%%++&&%%%%##++++......                ++%%%%%%%%%%++%%%%%%%%####......                ++%%%%%%%%++%%++########..##....                  ++++++  ++@@    ++##++..  ++  ..                  ++@@  ++@@++    ++##++  ++..        ",
"        ++%%++      ++%%%%++      ++##..                ++%%++        %%%%        ++##..                ++%%++++++++  %%%%  ##++++..##..                ++%%%%&&%%++%%++%%%%####..####..                ++%%@@++  ++@@  ++##++####  ##..              ++      ++    ++@@  ++##++##  ..++        ",
"    ++++++%%          ++++          ....  ..        ++++++%%        ++++++++        ....  ..        ++++++%%++        %%%%++      ++....  ..        ++++++%%++%%%%%%++%%%%%%######......  ..        ++++++%%++%%%%%%++  ++######..##....  ..        ++    ++++  ++  ++++  ++########  ++..      ",
"    %%++++%%++%%  ++  ++++  ++  ....##..            %%++++%%++%%  ++++++++  ++  ....##..            %%++++%%        ++++++++        ##..            %%++++%%++++++++  %%%%  ##++++..##..            %%++++%%%%%%%%%%%%++++######..  ##..            %%++  ++  ++++++%%%%%%++++######..++..      ",
"    &&++  %%++**  &&++%%++++%%  **..##..  ..        &&++  %%++**  %%++%%++++%%  **..##..  ..        &&++  %%++&&  ++++++++++++  ....##..  ..        &&++  %%          %%%%        ++##..  ..        &&++++%%%%&&%%++%%  ++######..##....  ..        %%++++++++  ++%%++%%%%++########  ++        ",
"    %%++++%%%%++++++++%%##++++++..####    ##        %%++++%%++++++++++%%##++++++..####    ##        %%++++%%++%%++%%++%%++++%%++##..##    ##        %%++++%%++      ++++++++        ##    ##        %%++  %%++%%%%++%%++++########..##..  ##        %%%%++++++  %%%%++%%++++##########++..      ",
"    %%++  %%%%%%%%++++%%##++%%########..  ..        %%++  %%%%++++  ++%%##++++++######..  ..        %%++  %%%%++      %%##++    ++####..  ..        %%++  %%++%%  ++++++++++++  ....##..  ..        %%++++%%++++++++  ++######++++++##    ..        %%%%%%  %%  %%++++++++######++++##..        ",
"    %%++  ++%%%%++++%%&&##++##%%####..  ..##        %%++  ++%%++++++%%&&##++##%%####..  ..##        %%++  ++%%++++  ++%%##++##++####..  ..##        %%++  ++%%++      ####++    ++##..  ..##        %%++  %%          ####          ##....##        ++%%  ++%%++%%  ++++++##++++    ..  ..      ",
"    ++++  %%%%%%%%%%%%%%%%##%%########..  ..        ++++  %%%%%%++%%%%%%%%##%%########..  ..        ++++  %%%%++++++++%%##############..  ..        ++++  %%%%++++  ++####++##++######..  ..        ++++  %%++      ++++++++      ....    ..          ++    %%        ++++++++      ##..        ",
"      ++  ++%%%%%%%%%%&&%%++##%%####..  ..            ++  ++%%%%%%%%%%&&%%++##%%####..  ..            ++  ++%%%%++++%%%%##++########..  ..            ++  ++%%++++++++%%############..  ..            ++  ++++++    ++++++++++  ..####....            ++    ++          ++++      ....          ",
"      ++  ++%%%%%%&&%%&&%%########..##  ..            ++  ++%%%%%%%%%%&&%%########..##  ..            ++  ++%%%%%%%%%%&&%%########..##  ..            ++  ++%%%%++++%%%%##++##########  ..            ++  %%%%++  ++  ++##++    ++##..  ..                  %%++++  ++  ++##++    ++##..        ",
"        ++%%%%%%&&%%++%%%%++########..                  ++%%%%%%&&%%++%%%%++########..                  ++%%%%%%%%%%%%&&%%++########..                  ++%%%%%%++%%%%%%%%########....                    ++%%++++  ++++##++##  ######                  ++  ++++++++  ++++##++##  ##..          ",
"          ++%%%%%%%%++++++  ++####..##                    ++%%%%%%%%++++++  ++####..##                    ++%%%%%%%%++%%%%++++####..##                    ++%%%%%%%%%%%%%%++##########                  ++%%%%%%  ++++########  ####..                      %%++%%  ++++########  ##..          ",
"        ++%%%%&&%%++  ++++    ####....                  ++%%%%&&%%++  ++++    ####....                  ++%%%%&&%%++++++++    ####....                  ++%%%%%%%%%%++%%%%++++####....                    ++%%%%++++++####++##++##..##                  ++++++++%%++++++####++##++##..          ",
"          %%%%&&%%++%%++  ##++  ##..##                    %%%%&&%%++  ++  ##++  ##..##                    %%%%&&%%++        ++  ##..##                    %%%%&&++++++++++    ####..##                  ++%%%%%%  ++++%%######++####..                    ++%%++%%  ++++%%######++....          ",
"        ++%%++%%%%%%&&%%%%####++##....                  ++%%++%%%%%%++%%%%####++##....                  ++%%++%%%%%%++++++  ##++##....                  ++%%%%&&++++        ++  ##....                    %%%%%%++##++%%##++##++##..##                  ++++%%++%%++##++%%##++##++....          ",
"          %%%%%%++%%%%%%%%%%######  ..                    %%%%%%++%%++%%%%%%######  ..                    %%%%%%++%%++%%%%++######  ..                    %%++%%    ++++++  ##++##....                  ++%%%%++++++++%%%%++++++##....                    ++++%%++++++++%%%%++++++....          ",
"          ++++%%%%%%++++++  ######....                    ++++%%%%++&&++++  ######....                    ++++%%%%++&&++%%++######....                    ++++%%  &&  ++++++######....                    %%++++++++  ++++  ++++......                    ++++++++++++  ++++  ++++..            ",
"          ++++%%%%    ++++++  ####  ..                    ++++%%%%  &&&&++++  ####  ..                    ++++%%%%  &&&&++    ####  ..                    ++++%%  &&&&  ++    ####  ..                    ++++++++  ++++    ##++......                      ++++++++  ++++    ##++..            ",
"            ++%%%%%%%%%%%%%%++##..                          ++%%%%%%++%%%%%%++##..                          ++%%%%  &&&&++++  ##..                          ++%%%%&&&&&&++    ##..                        ++++%%++    ++++++####..  ..                    ++++++%%++    ++++++##....            ",
"            ++%%%%%%++++++++%%####..                        ++%%%%%%++++++++%%####..                        ++%%%%%%++++%%%%%%####..                        ++%%%%++++++++++  ####..                        ++%%++&&&&  ++    ##..                          ++%%%%++        ++++....            ",
"            ++%%%%&&%%++++%%##%%....                        ++%%%%&&%%++++%%##%%....                        ++%%%%&&%%++++%%##%%....                        ++%%%%++++%%%%%%####....                        ++%%++++&&  ++    ##....                        ++%%%%++      ++++  ..              ",
"            ++++%%&&&&%%%%##%%++..                          ++++%%&&&&%%%%##%%++..                          ++++%%&&&&%%%%##%%++..                          ++++%%++&&%%%%####++..                          ++%%%%  ++++++++  ##....                        ++++%%%%  ++  ++++  ..              ",
"              ++%%%%%%%%%%%%####..                            ++%%%%%%%%%%%%####..                            ++%%%%%%%%%%%%####..                            ++%%++%%%%%%%%####..                          ++++%%  ++%%########..                            ++%%%%  ++  ####  ..              ",
"                ++%%%%%%%%####++                                ++%%%%%%%%####++                                ++%%%%%%%%####++                                ++++%%%%%%####++                              ++%%  %%%%######++..                              ++%%  ++++####                  ",
"                  ++++++++++++                                    ++++++++++++                                    ++++++++++++                                    ++++++++++++                                  ++++%%%%######++                              ++  ++++++++##++                  ",
"                                                                                                                                                                                                                  ++++++++++++                                                                  ",
"                                                                                                                                                                                                                                                                    ++                          ",
"                                                                                                                                                                                                                  ++                                                ++                          ",
"                                                                                                                                                                                                                                                                                                ",
"                                                                                                                                                                                                                                                                    ++                          ",
"                                                                                                                                                                                                                                                                                                "};
