/* XPM */
static const char * mcitems_64x_xpm[] = {
"48 128 13 1",
" 	c #000000",
".	c #BB8A45",
"+	c #715E03",
"@	c #8E82CA",
"#	c #4D4D4D",
"$	c #FFFFA5",
"%	c #9A6759",
"&	c #91C6D5",
"*	c #352879",
"=	c #924634",
"-	c #B8B8B8",
";	c #747474",
">	c #FFFFFF",
"                                                ",
"                                                ",
"                                                ",
"                                                ",
"                                                ",
"            **********************              ",
"          **@@@@&&&&@@&&&&&&>>&&**              ",
"          **********************&&**            ",
"          @@####################****            ",
"          @@                    ****            ",
"  ##;;;;;;;;;;;;;;;;;;;;;;;;;;;;;;;;;;;;##      ",
"  ;;>>>>>>>>>>>>>>>>>>>>>>>>>>>>>>>>>>>>;;      ",
"  ;;>>;;>>>>>>>>>>>>>>>>>>>>>>>>>>>>;;>>;;##    ",
"  ;;>>>>>>>>>>>>%%%%>>>>%%%%>>>>>>>>>>>>;;;;    ",
"  ;;>>>>>>>>>>>>%%%%>>>>%%%%>>>>>>>>>>>>;;--    ",
"  ;;>>>>>>>>>>>>%%%%>>>>%%%%>>>>>>>>>>>>;;;;    ",
"  ;;-->>>>>>>>>>%%%%%%%%%%%%>>>>>>>>>>>>;;--    ",
"  ;;>>>>>>>>>>>>%%%%>>>>%%%%>>>>>>>>>>>>;;--    ",
"  ;;-->>>>>>>>>>%%%%>>>>%%%%>>>>>>>>>>>>;;--    ",
"  ;;---->>>>>>>>%%%%>>>>%%%%>>>>>>>>>>>>;;;;    ",
"  ;;--;;---->>>>>>>>>>>>>>>>>>>>>>>>;;>>;;--    ",
"  ;;---------->>>>>>>>>>>>>>>>>>>>>>>>>>;;;;    ",
"  ##;;;;;;;;;;;;;;;;;;;;;;;;;;;;;;;;;;;;--;;    ",
"                ############################    ",
"    ########;;##;;;;;;;;;;;;;;;;;;;;######;;    ",
"      ######################################    ",
"                                                ",
"                                                ",
"                                                ",
"                                                ",
"                                                ",
"                                                ",
"                                                ",
"                                                ",
"                                                ",
"                                                ",
"                                                ",
"                  %%%%%%%%%%%%                  ",
"                %%%%        %%%%                ",
"              %%%%            %%%%              ",
"              %%                %%              ",
"            %%%%    ========    %%%%            ",
"            %%    ============    %%            ",
"-->>>>>>    %%    ============    %%  ##>>----;;",
"##;;---->>  %%  ==========>>====  %%##>>----;;##",
";;-->>---->>%%  ============--==  %%>>---->>;;##",
"-->>>>>>---->>  ============>>==  >>-->>>>>>--;;",
";;------------**==--========--==&&------------##",
"**&&------&&&&  ==>>============  &&&&&&&&&&&&**",
"**&&&&&&&&&&%%  ==--============  %%------&&****",
";;>>>>>>**  %%  ====>>==========  %%**---->>--;;",
"********    %%    ============    %%  **********",
"        ##  %%    ============    %%##          ",
"******##    %%%%    ========    %%%%  ##****    ",
"              %%                %%              ",
"              %%%%            %%%%              ",
"                %%%%        %%%%                ",
"                  %%%%%%%%%%%%                  ",
"                                                ",
"                                                ",
"                                                ",
"                                                ",
"                                                ",
"                                                ",
"                                                ",
"                                                ",
"                                                ",
"                                                ",
"                                                ",
"                                                ",
"          **                                    ",
"                                  **            ",
"    **          ;;-->>  -->>>>            **    ",
"      @@        ;;;;--  -->>>>          **      ",
"        @@      ;;----  ;;-->>        @@        ",
"          **    ;;;;--  ---->>      **          ",
"                ;;--;;  ;;;;--                  ",
"              ==..--      ;;;;..                ",
"              ==..==      ......                ",
"              ==..==      ======                ",
"  ****@@****  ==..==      ==....    ****@@@@**  ",
"              ==..==      ======                ",
"              ====..      ==....                ",
"              ==..==============                ",
"              ++====....====..++                ",
"          **    ==============      **          ",
"        **      ++==========++        @@        ",
"      @@          ++======++            **      ",
"    **                          **        **    ",
"            **                                  ",
"                                                ",
"                                                ",
"                                                ",
"                                                ",
"                                                ",
"                                                ",
"                                                ",
"                                                ",
"                                                ",
"                                                ",
"                                                ",
"                  ######                        ",
"                ##  ######  ++....++            ",
"              ##;;########  ..    ..            ",
"            ##;;--######  ..        --          ",
"            ##;;;;##  ;;  ++        ..          ",
"            ;;######  --          ++  ..        ",
"          ##;;;;;;;;  >>##  ++        $$        ",
"          ######;;;;  --;;++        ..>>..      ",
"          ##;;;;----####----++      ++>>++      ",
"          ##------;;;;  ;;++      ++$$>>$$++    ",
"          ##;;-->>--;;##    ++++    ++>>++      ",
"          ##-->>>>--;;####..--++    ..>>..      ",
"          ##-->>>>--;;;;####..++      $$        ",
"          ##;;-->>--;;####..--    ++  ++  ++    ",
"          ##;;----;;;;;;####..        ++        ",
"            ;;;;----######....                  ",
"            ##;;;;;;;;######++                  ",
"            ##############..                    ",
"              ##;;;;##  ####                    ",
"                ##########                      ",
"                                                ",
"                                                ",
"                                                ",
"                                                ",
"                                                ",
"                                                ",
"                                                "};
