/* XPM */
static const char * mcweapons_64x_xpm[] = {
"48 48 11 1",
" 	c #000000",
".	c #352879",
"+	c #91C6D5",
"@	c #8E82CA",
"#	c #FFFFFF",
"$	c #747474",
"%	c #4D4D4D",
"&	c #B8B8B8",
"*	c #BB8A45",
"=	c #715E03",
"-	c #FFFFA5",
"                                                ",
"                                                ",
"                                                ",
"                                                ",
"                                                ",
"                                                ",
"                                  ..++          ",
"            ..                    ++++          ",
"          @@@@  @@@@  @@@@++++++........        ",
"          @@++@@++##@@++++########++++..        ",
"          ....  ....  ....++++++++....          ",
"                      $$  %%%%%%%%%%            ",
"                      $$  %%&&##%%              ",
"                        ##$$%%$$                ",
"                            &&##$$              ",
"                            %%$$&&              ",
"                            $$&&##              ",
"                              %%$$              ",
"                                                ",
"                                                ",
"                                                ",
"                                                ",
"                                                ",
"                                                ",
"                                                ",
"                                                ",
"                                                ",
"                                                ",
"      $$            %%%%%%%%%%  $$$$            ",
"      &&&&$$              %%%%%%$$##$$          ",
"    ..................................$$$$      ",
"  &&&&&&####++##########++####....**$$%%%%%%    ",
"  ++++++++++++++++++++++++........==&&##&&&&++  ",
"  $$$$$$..$$$$....................--$$%%%%%%##..",
"      %%    %%%%%%%%%%        %%..==&&##&&&&....",
"    %%%%............................$$%%%%%%..  ",
"                    %%  %%%%    %%%%%%$$$$      ",
"                %%%%$$$$$$..%%%%$$&&            ",
"                        %%$$  $$....%%          ",
"                          &&  %%$$&&##          ",
"                            &&&&%%....          ",
"                              %%&&$$&&%%        ",
"                                %%%%..%%        ",
"                                  %%%%%%        ",
"                                                ",
"                                                ",
"                                                ",
"                                                "};
